<svg width="26" height="30" viewBox="0 0 26 30" fill="none" xmlns="http://www.w3.org/2000/svg">
<path d="M25.5168 8.13977L25.5159 8.11642C25.5029 7.82826 25.4942 7.52339 25.4889 7.18419C25.4644 5.53006 24.1495 4.16181 22.4951 4.06934C19.0459 3.87685 16.3776 2.75213 14.0977 0.529918L14.0783 0.511378C13.3346 -0.170459 12.2129 -0.170459 11.469 0.511378L11.4496 0.529918C9.16966 2.75213 6.50137 3.87685 3.05212 4.06957C1.398 4.16181 0.0828444 5.53006 0.0583541 7.18442C0.0533187 7.52133 0.0443923 7.8262 0.0313461 8.11642L0.0299728 8.17066C-0.0370894 11.6879 -0.120402 16.0652 1.34398 20.0384C2.14919 22.2233 3.36867 24.1226 4.96832 25.6838C6.79021 27.4617 9.17653 28.8732 12.0609 29.8789C12.1547 29.9117 12.2522 29.9382 12.3516 29.9581C12.4916 29.986 12.6326 30 12.7736 30C12.9146 30 13.0558 29.986 13.1957 29.9581C13.295 29.9382 13.3932 29.9114 13.4875 29.8785C16.3684 28.8709 18.7522 27.4587 20.5725 25.681C22.1715 24.1194 23.391 22.2196 24.1969 20.0343C25.6667 16.0492 25.5837 11.6636 25.5168 8.13977ZM22.5453 19.4252C21.0008 23.6128 17.8479 26.4887 12.9066 28.2168C12.889 28.2227 12.8702 28.228 12.8508 28.2319C12.7997 28.242 12.7478 28.242 12.696 28.2317C12.6768 28.2278 12.658 28.2227 12.6407 28.2168C7.69407 26.4919 4.53917 23.6176 2.99582 19.4298C1.6461 15.7675 1.72255 11.7492 1.79007 8.20431L1.79053 8.18463C1.80426 7.87999 1.81342 7.56093 1.81845 7.21028C1.82944 6.4758 2.41446 5.86812 3.15031 5.82715C5.10221 5.7182 6.81699 5.341 8.39261 4.67404C9.96617 4.008 11.3637 3.06913 12.6647 1.80387C12.7308 1.74802 12.8167 1.7478 12.8826 1.80387C14.1838 3.06913 15.5813 4.008 17.1546 4.67404C18.7303 5.341 20.445 5.7182 22.3972 5.82715C23.133 5.86812 23.7181 6.4758 23.7288 7.21051C23.7341 7.56299 23.7432 7.88205 23.757 8.18463C23.8243 11.7337 23.8989 15.7551 22.5453 19.4252Z" fill="#45AAF2"/>
<path d="M12.7732 7.5241C8.65059 7.5241 5.29678 10.8781 5.29678 15.0005C5.29678 19.1232 8.65059 22.4772 12.7732 22.4772C16.8956 22.4772 20.2496 19.1232 20.2496 15.0005C20.2496 10.8781 16.8956 7.5241 12.7732 7.5241ZM12.7732 20.7166C9.62127 20.7166 7.05711 18.1525 7.05711 15.0005C7.05711 11.8486 9.62127 9.28443 12.7732 9.28443C15.9249 9.28443 18.4891 11.8486 18.4891 15.0005C18.4891 18.1525 15.9249 20.7166 12.7732 20.7166Z" fill="#45AAF2"/>
<path d="M14.922 12.6794L11.4494 16.152L10.5068 15.2095C10.163 14.8657 9.60571 14.8657 9.26193 15.2095C8.91838 15.5533 8.91838 16.1106 9.26193 16.4542L10.827 18.0193C10.9989 18.1911 11.2241 18.277 11.4494 18.277C11.6746 18.277 11.8998 18.1911 12.0717 18.0193L16.1668 13.9241C16.5104 13.5803 16.5104 13.023 16.1668 12.6794C15.8231 12.3354 15.2657 12.3354 14.922 12.6794Z" fill="#45AAF2"/>
</svg>
