<svg width="271" height="55" viewBox="0 0 271 55" fill="none" xmlns="http://www.w3.org/2000/svg">
<path d="M63.8573 19.3609H69.906V34.9889H73.8472V19.3609H79.9232V15.8302H63.8573V19.3609ZM83.7007 30.8835C82.9891 30.1445 82.6333 29.2413 82.6333 28.1465C82.6333 27.0517 82.9891 26.1485 83.7007 25.4369C84.4123 24.6979 85.3155 24.3421 86.4103 24.3421C87.5051 24.3421 88.4083 24.6979 89.1199 25.4369C89.8315 26.1485 90.1873 27.0517 90.1873 28.1465C90.1873 29.2413 89.8315 30.1445 89.1199 30.8835C88.4083 31.6225 87.5051 31.9783 86.4103 31.9783C85.3155 31.9783 84.4123 31.6225 83.7007 30.8835ZM78.8289 28.1465C78.8289 30.1992 79.5405 31.8962 80.9637 33.292C82.3869 34.6605 84.1933 35.3447 86.4103 35.3447C88.6272 35.3447 90.4336 34.6605 91.8568 33.292C93.2801 31.8962 93.9917 30.1992 93.9917 28.1465C93.9917 26.1485 93.2801 24.4516 91.8568 23.0558C90.4336 21.6599 88.6272 20.9757 86.4103 20.9757C84.1933 20.9757 82.3869 21.6599 80.9637 23.0558C79.5405 24.4242 78.8289 26.1212 78.8289 28.1465ZM100.478 34.9889V26.5591L103.845 30.8014H105.377L108.771 26.5591V34.9889H112.411V21.3315H108.607L104.611 26.4222L100.642 21.3315H96.8381V34.9889H100.478ZM120.349 34.9889V21.8789L124.838 28.037H127.028L131.434 21.8789V34.9889H135.321V15.8302H131.434L125.878 23.7674L120.322 15.8302H116.408V34.9889H120.349ZM146.014 35.3447C148.258 35.3447 149.983 34.8795 151.214 33.9489V30.8561C149.818 31.6498 148.368 32.0604 146.835 32.0604C144.427 32.0604 142.675 31.0751 142.264 29.2139H152.063V28.2013C152.063 26.1759 151.461 24.479 150.284 23.0831C149.107 21.6873 147.547 20.9757 145.549 20.9757C143.441 20.9757 141.717 21.6599 140.403 23.0558C139.09 24.4242 138.433 26.1212 138.433 28.1465C138.433 30.3087 139.172 32.0604 140.622 33.3741C142.073 34.6879 143.879 35.3447 146.014 35.3447ZM142.264 26.7507C142.456 25.1359 143.633 24.0137 145.385 24.0137C147.109 24.0137 148.176 25.2453 148.258 26.7507H142.264ZM157.379 38.4649V34.9889H167.232V38.4649H170.872V31.7593H168.628V21.3315H157.133L157.078 23.9863C157.023 27.5718 156.476 30.1445 155.436 31.7593H153.684V38.4649H157.379ZM159.377 31.7593C160.171 29.8161 160.581 27.4075 160.581 24.5611H164.851V31.7593H159.377ZM183.456 35.3721C185.537 35.3721 187.343 34.9068 188.903 33.9763V30.0077C187.48 31.1298 185.728 31.6772 183.648 31.6772C181.759 31.6772 180.199 31.1024 178.968 29.9255C177.736 28.7487 177.107 27.2433 177.107 25.4096C177.107 23.5758 177.709 22.0978 178.913 20.9209C180.145 19.744 181.65 19.1419 183.484 19.1419C185.372 19.1419 187.042 19.6346 188.52 20.6199V16.6513C187.014 15.8575 185.345 15.447 183.456 15.447C180.473 15.447 177.982 16.3776 176.012 18.2387C174.069 20.0998 173.083 22.481 173.083 25.4096C173.083 28.3107 174.069 30.6919 176.039 32.5804C178.01 34.4415 180.473 35.3721 183.456 35.3721ZM198.722 35.3447C200.966 35.3447 202.691 34.8795 203.922 33.9489V30.8561C202.526 31.6498 201.076 32.0604 199.543 32.0604C197.135 32.0604 195.383 31.0751 194.972 29.2139H204.771V28.2013C204.771 26.1759 204.169 24.479 202.992 23.0831C201.815 21.6873 200.255 20.9757 198.257 20.9757C196.149 20.9757 194.425 21.6599 193.111 23.0558C191.798 24.4242 191.141 26.1212 191.141 28.1465C191.141 30.3087 191.88 32.0604 193.33 33.3741C194.781 34.6879 196.587 35.3447 198.722 35.3447ZM194.972 26.7507C195.164 25.1359 196.341 24.0137 198.093 24.0137C199.817 24.0137 200.884 25.2453 200.966 26.7507H194.972ZM216.081 20.9757C214.11 20.9757 212.605 21.6599 211.592 23.001V21.3315H207.733V40.4629H211.592V33.3194C212.66 34.6605 214.138 35.3447 216.081 35.3447C217.942 35.3447 219.475 34.6605 220.679 33.292C221.911 31.8962 222.513 30.1992 222.513 28.1739C222.513 26.1212 221.911 24.4242 220.679 23.0558C219.475 21.6599 217.942 20.9757 216.081 20.9757ZM214.986 24.3421C216.054 24.3421 216.957 24.6979 217.641 25.4369C218.325 26.1759 218.681 27.0791 218.681 28.1739C218.681 29.2413 218.325 30.1445 217.641 30.8835C216.957 31.6225 216.054 31.9783 214.986 31.9783C213.481 31.9783 212.222 31.1298 211.592 29.9529V26.3949C212.222 25.218 213.481 24.3421 214.986 24.3421ZM233.394 34.9889C236.569 34.9889 238.375 33.5383 238.375 31.2393C238.375 29.515 237.499 28.3381 235.775 27.736C236.897 27.1612 237.445 26.2033 237.445 24.8348C237.445 22.8368 235.912 21.3315 233.065 21.3315H225.347V34.9889H233.394ZM229.152 29.2139H232.436C233.777 29.2139 234.434 29.734 234.434 30.7466C234.434 31.7593 233.777 32.2793 232.436 32.2793H229.152V29.2139ZM229.152 23.9863H231.834C233.065 23.9863 233.668 24.4516 233.668 25.3822C233.668 26.3128 233.065 26.778 231.834 26.778H229.152V23.9863ZM244.97 34.9889L251.156 26.9423V34.9889H254.96V21.3315H251.347L245.162 29.3782V21.3315H241.357V34.9889H244.97ZM265.245 35.3447C266.859 35.3447 268.283 35.0163 269.569 34.3321V31.0477C268.502 31.6772 267.27 31.9783 265.874 31.9783C264.697 31.9783 263.685 31.6225 262.863 30.9109C262.042 30.1992 261.632 29.2687 261.632 28.1465C261.632 27.0244 262.042 26.0938 262.836 25.4096C263.657 24.6979 264.67 24.3421 265.874 24.3421C266.996 24.3421 268.173 24.6158 269.35 25.1632V21.8789C268.146 21.2767 266.805 20.9757 265.299 20.9757C263.247 20.9757 261.495 21.6325 260.017 22.9463C258.566 24.2327 257.827 25.9569 257.827 28.1191C257.827 30.2814 258.566 32.033 260.017 33.3741C261.468 34.6879 263.219 35.3447 265.245 35.3447Z" fill="#1F2A36"/>
<path d="M30.667 14.2843C33.4117 14.2843 35.6367 12.055 35.6367 9.30499C35.6367 6.55501 33.4117 4.32572 30.667 4.32572C27.9222 4.32572 25.6972 6.55501 25.6972 9.30499C25.6972 12.055 27.9222 14.2843 30.667 14.2843Z" fill="#DA251D"/>
<path d="M25.6972 17.7413V32.2398C25.6972 32.5002 25.7229 32.7519 25.76 33.0008C25.7229 33.1594 25.699 33.318 25.699 33.4881V52.1551C25.699 53.3201 26.6408 54.2646 27.8027 54.2646C28.9647 54.2646 29.9065 53.3219 29.9065 52.1551V37.274C30.1992 37.328 30.4989 37.359 30.8076 37.359C31.1171 37.359 31.416 37.328 31.7104 37.274V52.156C31.7104 53.321 32.6513 54.2655 33.8142 54.2655C34.9753 54.2655 35.9179 53.3228 35.9179 52.156V33.4881C35.9179 33.318 35.8923 33.155 35.8551 32.9955C35.8914 32.7492 35.9161 32.4976 35.9161 32.2389V17.6545L25.6972 17.7413Z" fill="#DA251D"/>
<path d="M10.687 17.4455C10.687 16.0431 11.8239 14.9062 13.2263 14.9062H47.9302C49.3327 14.9062 50.4696 16.0431 50.4696 17.4455C50.4696 18.8479 49.3327 19.9848 47.9302 19.9848H13.2263C11.8239 19.9848 10.687 18.8479 10.687 17.4455Z" fill="#DA251D"/>
<path fill-rule="evenodd" clip-rule="evenodd" d="M53.3425 49.189C45.7173 57.5332 28.6237 54.3257 15.1629 42.0249C1.70214 29.724 -3.02852 12.9878 4.59671 4.64357C9.29125 -0.493642 17.5746 -1.25232 26.3897 1.79386C19.6256 0.0325104 13.4532 0.974858 9.7922 4.98111C3.16504 12.2332 7.2765 26.7787 18.9754 37.4696C30.6743 48.1604 45.5305 50.948 52.1577 43.696C56.2443 39.224 56.2475 31.9787 52.9062 24.574C58 33.9707 58.5249 43.518 53.3425 49.189Z" fill="#45AAF2"/>
</svg>
