<svg xmlns="http://www.w3.org/2000/svg" width="612" height="612" viewBox="0 0 612 612">
  <metadata><?xpacket begin="﻿" id="W5M0MpCehiHzreSzNTczkc9d"?>
<x:xmpmeta xmlns:x="adobe:ns:meta/" x:xmptk="Adobe XMP Core 5.6-c142 79.160924, 2017/07/13-01:06:39        ">
   <rdf:RDF xmlns:rdf="http://www.w3.org/1999/02/22-rdf-syntax-ns#">
      <rdf:Description rdf:about=""/>
   </rdf:RDF>
</x:xmpmeta>
                                                                                                    
                                                                                                    
                                                                                                    
                                                                                                    
                                                                                                    
                                                                                                    
                                                                                                    
                                                                                                    
                                                                                                    
                                                                                                    
                                                                                                    
                                                                                                    
                                                                                                    
                                                                                                    
                                                                                                    
                                                                                                    
                                                                                                    
                                                                                                    
                                                                                                    
                                                                                                    
                           
<?xpacket end="w"?></metadata>
<defs>
    <style>
      .cls-1 {
        fill: #fff;
        fill-rule: evenodd;
      }
    </style>
  </defs>
  <path id="Forma_1" data-name="Forma 1" class="cls-1" d="M306,0C137.269,0,0,137.269,0,306S137.269,612,306,612,612,474.73,612,306,474.73,0,306,0Zm0,572.192C159.223,572.192,39.81,452.78,39.81,306S159.223,39.81,306,39.81,572.19,159.223,572.19,306,452.78,572.192,306,572.192ZM430.829,355.864a19.913,19.913,0,0,0-27.5,6.043,103.917,103.917,0,1,1-1.428-113.992,19.9,19.9,0,1,0,32.984-22.289A143.662,143.662,0,0,0,315.72,162.272C236.47,162.272,172,226.747,172,306S236.47,449.728,315.72,449.728a143.208,143.208,0,0,0,121.151-66.37A19.907,19.907,0,0,0,430.829,355.864Z"/>
</svg>
